<svg id="background" xmlns="http://www.w3.org/2000/svg" width="135" height="135" viewBox="0 0 135 135">
  <defs>
    <style>
      .cls-1 {
        fill: #e61e25;
      }
    </style>
  </defs>
  <g>
    <path class="cls-1" d="M12.9,52.61H18V67.89H16.85l-.39-2c-1,1.61-2.05,2.42-3.16,2.42q-2.75,0-4.26-3.76T7.53,54a30.13,30.13,0,0,1,1.6-10.77c1.07-2.75,2.48-4.12,4.21-4.12q3.42,0,4.16,8l-1.68,1.76v-.69l0-1.53c-.11-3.33-.79-5-2-5-.9,0-1.52.89-1.85,2.66a62.76,62.76,0,0,0-.5,9.89,67.42,67.42,0,0,0,.4,9.18c.27,1.61.78,2.42,1.54,2.42s1.33-1.13,1.33-3.4v-7H12.9Z"/>
    <path class="cls-1" d="M24.81,39.09q5.4,0,5.4,14.64t-5.5,14.63q-5.49,0-5.5-15Q19.21,39.09,24.81,39.09Zm-.1,2.26c-.68,0-1.13.86-1.37,2.56A85.72,85.72,0,0,0,23,53.73a85.51,85.51,0,0,0,.36,9.81c.24,1.71.69,2.56,1.37,2.56s1.13-.85,1.37-2.56a85.51,85.51,0,0,0,.36-9.81,85.75,85.75,0,0,0-.36-9.81C25.84,42.21,25.38,41.35,24.71,41.35Z"/>
    <path class="cls-1" d="M35.37,39.59V65.05h5.08v2.84H31.79V39.59Z"/>
    <path class="cls-1" d="M41.21,67.89V39.59h5.13q5.46,0,5.46,14.18T46.14,67.89Zm3.59-2.35h.94c.86,0,1.46-.85,1.79-2.56a55.78,55.78,0,0,0,.5-9.25,57.2,57.2,0,0,0-.49-9.25q-.49-2.55-1.8-2.55H44.8Z"/>
    <path class="cls-1" d="M70.42,39.59v28.3H67V48.19l-2.4,19.7h-2L60.08,48.52V67.89h-1.2V39.59h3.64l2.12,17.08,2.11-17.08Z"/>
    <path class="cls-1" d="M77.61,39.09q5.4,0,5.4,14.64t-5.5,14.63q-5.49,0-5.49-15Q72,39.09,77.61,39.09Zm-.1,2.26c-.68,0-1.13.86-1.37,2.56a85.72,85.72,0,0,0-.36,9.82,85.51,85.51,0,0,0,.36,9.81c.24,1.71.69,2.56,1.37,2.56s1.13-.85,1.37-2.56a85.51,85.51,0,0,0,.36-9.81,85.75,85.75,0,0,0-.36-9.81C78.64,42.21,78.19,41.35,77.51,41.35Z"/>
    <path class="cls-1" d="M93.63,39.59v28.3H90.88L85.72,50V67.89h-1.2V39.59h2.27l5.63,19.34V39.59Z"/>
    <path class="cls-1" d="M103.77,47.51l-1.67.7c.07-.76.11-1.39.11-1.9q0-4.94-2.62-4.94c-1.37,0-2.06,1.14-2.06,3.4a5.44,5.44,0,0,0,2.31,4.38q4.45,3.49,4.45,10.36A14.15,14.15,0,0,1,103,66c-.83,1.62-1.94,2.43-3.32,2.43q-4.59,0-4.59-8.14c0-.44,0-1,.05-1.64l1.72-.87a29.54,29.54,0,0,0-.19,3.13c0,3.51.87,5.26,2.63,5.26,1.41,0,2.11-1.26,2.11-3.79a6.32,6.32,0,0,0-2.53-5q-3.65-3.07-3.64-9.81a13.3,13.3,0,0,1,1.21-6.14c.81-1.56,1.88-2.34,3.2-2.34Q103.77,39.11,103.77,47.51Z"/>
    <path class="cls-1" d="M114.54,39.59v2.84h-3V67.89h-3.8V42.43h-3V39.59Z"/>
    <path class="cls-1" d="M123.48,39.59v2.84h-4.43V51h3.72v2.84h-3.72V65.05h5.18v2.84h-8.76V39.59Z"/>
    <path class="cls-1" d="M125.35,67.89V39.59h5.32a3.77,3.77,0,0,1,3.31,2A10.06,10.06,0,0,1,135.22,47q0,5.14-2.66,6.69a5.4,5.4,0,0,1,1.77,2.55,26.88,26.88,0,0,1,.55,5.39,26.77,26.77,0,0,0,.69,6.31h-3.89a27,27,0,0,1-.37-4.92l0-1.68,0-2.11q0-4.89-1.72-4.89h-.61v13.6ZM128.94,52h.72q2,0,2-4.88c0-3.24-.68-4.87-2-4.87h-.72Z"/>
  </g>
</svg>
